G75*
G70*
%OFA0B0*%
%FSLAX24Y24*%
%IPPOS*%
%LPD*%
%AMOC8*
5,1,8,0,0,1.08239X$1,22.5*
%
%ADD10C,0.0060*%
%ADD11R,0.0472X0.0315*%
%ADD12R,0.0500X0.0500*%
%ADD13C,0.0600*%
%ADD14C,0.0160*%
D10*
X013130Y018130D02*
X013557Y018130D01*
X013344Y018130D02*
X013344Y018771D01*
X013130Y018557D01*
X017630Y018557D02*
X017630Y018130D01*
X017630Y018450D02*
X018057Y018450D01*
X018057Y018557D02*
X018057Y018130D01*
X018275Y018130D02*
X018702Y018557D01*
X018702Y018664D01*
X018595Y018771D01*
X018381Y018771D01*
X018275Y018664D01*
X018057Y018557D02*
X017844Y018771D01*
X017630Y018557D01*
X018275Y018130D02*
X018702Y018130D01*
X018919Y018130D02*
X019346Y018557D01*
X019346Y018664D01*
X019239Y018771D01*
X019026Y018771D01*
X018919Y018664D01*
X018919Y018130D02*
X019346Y018130D01*
X019564Y018237D02*
X019670Y018130D01*
X019884Y018130D01*
X019991Y018237D01*
X019991Y018344D01*
X019884Y018450D01*
X019777Y018450D01*
X019884Y018450D02*
X019991Y018557D01*
X019991Y018664D01*
X019884Y018771D01*
X019670Y018771D01*
X019564Y018664D01*
X020208Y018771D02*
X020208Y018450D01*
X020422Y018557D01*
X020528Y018557D01*
X020635Y018450D01*
X020635Y018237D01*
X020528Y018130D01*
X020315Y018130D01*
X020208Y018237D01*
X020853Y018450D02*
X021280Y018450D01*
X021497Y018450D02*
X021924Y018450D01*
X021924Y018130D02*
X021924Y018771D01*
X021497Y018771D02*
X021497Y018130D01*
X020635Y018771D02*
X020208Y018771D01*
X025630Y018664D02*
X025630Y018557D01*
X025737Y018450D01*
X026057Y018450D01*
X026057Y018237D02*
X026057Y018664D01*
X025950Y018771D01*
X025737Y018771D01*
X025630Y018664D01*
X025630Y018237D02*
X025737Y018130D01*
X025950Y018130D01*
X026057Y018237D01*
D11*
X022506Y017100D03*
X022506Y016600D03*
X022506Y016100D03*
X022506Y015600D03*
X022506Y015100D03*
X022506Y014600D03*
X022506Y014100D03*
X022506Y013600D03*
X022506Y013100D03*
X022506Y012600D03*
X022506Y012100D03*
X022506Y011600D03*
X022506Y011100D03*
X016198Y011100D03*
X016198Y011600D03*
X016198Y012100D03*
X016198Y014600D03*
X016198Y015100D03*
X016198Y015600D03*
X016198Y016100D03*
X016198Y016600D03*
X016198Y017100D03*
D12*
X017852Y016348D03*
X018860Y016348D03*
X019860Y016348D03*
X020856Y016348D03*
X020848Y011860D03*
X019864Y011860D03*
X018868Y011860D03*
X017852Y011860D03*
D13*
X014900Y012100D02*
X014300Y012100D01*
X014300Y011100D02*
X014900Y011100D01*
X014900Y010100D02*
X014300Y010100D01*
X014300Y013100D02*
X014900Y013100D01*
X014900Y014100D02*
X014300Y014100D01*
X014300Y015100D02*
X014900Y015100D01*
X014900Y016100D02*
X014300Y016100D01*
X014300Y017100D02*
X014900Y017100D01*
X014900Y018100D02*
X014300Y018100D01*
X014300Y019100D02*
X014900Y019100D01*
X023800Y019100D02*
X024400Y019100D01*
X024400Y018100D02*
X023800Y018100D01*
X023800Y017100D02*
X024400Y017100D01*
X024400Y016100D02*
X023800Y016100D01*
X023800Y015100D02*
X024400Y015100D01*
X024400Y014100D02*
X023800Y014100D01*
X023800Y013100D02*
X024400Y013100D01*
X024400Y012100D02*
X023800Y012100D01*
X023800Y011100D02*
X024400Y011100D01*
X024400Y010100D02*
X023800Y010100D01*
D14*
X013727Y009660D02*
X013660Y009760D01*
X013660Y017707D01*
X013903Y017707D01*
X013923Y017709D01*
X013944Y017715D01*
X013963Y017723D01*
X013981Y017733D01*
X013998Y017746D01*
X014001Y017749D01*
X014039Y017710D01*
X014208Y017640D01*
X014991Y017640D01*
X015161Y017710D01*
X015290Y017839D01*
X015360Y018008D01*
X015360Y018021D01*
X016699Y019360D01*
X023410Y019360D01*
X023402Y019340D01*
X023052Y019340D01*
X022964Y019303D01*
X022897Y019236D01*
X022397Y018736D01*
X022360Y018648D01*
X022360Y018105D01*
X022024Y018105D01*
X022024Y019044D01*
X022021Y019065D01*
X022016Y019085D01*
X022008Y019104D01*
X021997Y019122D01*
X021985Y019139D01*
X021970Y019154D01*
X021953Y019167D01*
X021935Y019177D01*
X021916Y019185D01*
X021895Y019191D01*
X021875Y019193D01*
X017356Y019193D01*
X017335Y019191D01*
X017315Y019185D01*
X017296Y019177D01*
X017278Y019167D01*
X017261Y019154D01*
X017246Y019139D01*
X017233Y019122D01*
X017223Y019104D01*
X017215Y019085D01*
X017209Y019065D01*
X017207Y019044D01*
X017207Y018105D01*
X016000Y018105D01*
X015814Y018028D01*
X015672Y017886D01*
X015595Y017700D01*
X015595Y017340D01*
X015298Y017340D01*
X015290Y017361D01*
X015161Y017490D01*
X014991Y017560D01*
X014208Y017560D01*
X014039Y017490D01*
X013910Y017361D01*
X013840Y017191D01*
X013840Y017008D01*
X013910Y016839D01*
X014039Y016710D01*
X014208Y016640D01*
X014991Y016640D01*
X015161Y016710D01*
X015290Y016839D01*
X015298Y016860D01*
X015595Y016860D01*
X015595Y016340D01*
X015298Y016340D01*
X015290Y016361D01*
X015161Y016490D01*
X014991Y016560D01*
X014208Y016560D01*
X014039Y016490D01*
X013910Y016361D01*
X013840Y016191D01*
X013840Y016008D01*
X013910Y015839D01*
X014039Y015710D01*
X014208Y015640D01*
X014991Y015640D01*
X015161Y015710D01*
X015290Y015839D01*
X015298Y015860D01*
X015595Y015860D01*
X015595Y015434D01*
X015369Y015208D01*
X015368Y015212D01*
X015345Y015284D01*
X015311Y015352D01*
X015266Y015413D01*
X015213Y015466D01*
X015152Y015511D01*
X015084Y015545D01*
X015012Y015568D01*
X014938Y015580D01*
X014620Y015580D01*
X014620Y015120D01*
X014580Y015120D01*
X014580Y015580D01*
X014262Y015580D01*
X014188Y015568D01*
X014116Y015545D01*
X014048Y015511D01*
X013987Y015466D01*
X013934Y015413D01*
X013889Y015352D01*
X013855Y015284D01*
X013832Y015212D01*
X013820Y015138D01*
X013820Y015120D01*
X014580Y015120D01*
X014580Y015080D01*
X014620Y015080D01*
X014620Y014620D01*
X014781Y014620D01*
X014721Y014560D01*
X014208Y014560D01*
X014039Y014490D01*
X013910Y014361D01*
X013840Y014191D01*
X013840Y014008D01*
X013910Y013839D01*
X014039Y013710D01*
X014208Y013640D01*
X014991Y013640D01*
X015161Y013710D01*
X015290Y013839D01*
X015360Y014008D01*
X015360Y014191D01*
X015290Y014361D01*
X015245Y014406D01*
X015360Y014521D01*
X015360Y013699D01*
X015153Y013493D01*
X014991Y013560D01*
X014208Y013560D01*
X014039Y013490D01*
X013910Y013361D01*
X013840Y013191D01*
X013840Y013008D01*
X013910Y012839D01*
X014039Y012710D01*
X014208Y012640D01*
X014991Y012640D01*
X015161Y012710D01*
X015290Y012839D01*
X015360Y013008D01*
X015360Y013021D01*
X015595Y013256D01*
X015595Y012340D01*
X015298Y012340D01*
X015290Y012361D01*
X015161Y012490D01*
X014991Y012560D01*
X014208Y012560D01*
X014039Y012490D01*
X013910Y012361D01*
X013840Y012191D01*
X013840Y012008D01*
X013910Y011839D01*
X014039Y011710D01*
X014208Y011640D01*
X014801Y011640D01*
X014721Y011560D01*
X014208Y011560D01*
X014039Y011490D01*
X013910Y011361D01*
X013840Y011191D01*
X013840Y011008D01*
X013910Y010839D01*
X014039Y010710D01*
X014208Y010640D01*
X014991Y010640D01*
X015161Y010710D01*
X015290Y010839D01*
X015360Y011008D01*
X015360Y011191D01*
X015290Y011360D01*
X015595Y011360D01*
X015595Y010500D01*
X015661Y010340D01*
X015298Y010340D01*
X015290Y010361D01*
X015161Y010490D01*
X014991Y010560D01*
X014208Y010560D01*
X014039Y010490D01*
X013910Y010361D01*
X013840Y010191D01*
X013840Y010008D01*
X013910Y009839D01*
X014039Y009710D01*
X014160Y009660D01*
X013727Y009660D01*
X013660Y009769D02*
X013981Y009769D01*
X013874Y009927D02*
X013660Y009927D01*
X013660Y010086D02*
X013840Y010086D01*
X013862Y010244D02*
X013660Y010244D01*
X013660Y010403D02*
X013952Y010403D01*
X014030Y010720D02*
X013660Y010720D01*
X013660Y010878D02*
X013894Y010878D01*
X013840Y011037D02*
X013660Y011037D01*
X013660Y011195D02*
X013841Y011195D01*
X013907Y011354D02*
X013660Y011354D01*
X013660Y011512D02*
X014093Y011512D01*
X014135Y011671D02*
X013660Y011671D01*
X013660Y011829D02*
X013920Y011829D01*
X013849Y011988D02*
X013660Y011988D01*
X013660Y012146D02*
X013840Y012146D01*
X013887Y012305D02*
X013660Y012305D01*
X013660Y012463D02*
X014012Y012463D01*
X014100Y012600D02*
X015600Y012600D01*
X016100Y013100D01*
X016100Y013600D01*
X017600Y013600D01*
X017852Y013348D01*
X017852Y011860D01*
X018868Y011860D01*
X019864Y011860D01*
X020848Y011860D01*
X020803Y011829D02*
X019909Y011829D01*
X019909Y011815D02*
X019909Y011905D01*
X020294Y011905D01*
X020294Y012134D01*
X020282Y012179D01*
X020258Y012220D01*
X020224Y012254D01*
X020183Y012278D01*
X020137Y012290D01*
X019909Y012290D01*
X019909Y011905D01*
X019819Y011905D01*
X019819Y012290D01*
X019590Y012290D01*
X019544Y012278D01*
X019503Y012254D01*
X019470Y012220D01*
X019446Y012179D01*
X019434Y012134D01*
X019434Y011905D01*
X019819Y011905D01*
X019819Y011815D01*
X019909Y011815D01*
X020294Y011815D01*
X020294Y011586D01*
X020282Y011540D01*
X020258Y011499D01*
X020224Y011466D01*
X020183Y011442D01*
X020137Y011430D01*
X019909Y011430D01*
X019909Y011815D01*
X019819Y011815D02*
X019819Y011430D01*
X019590Y011430D01*
X019544Y011442D01*
X019503Y011466D01*
X019470Y011499D01*
X019446Y011540D01*
X019434Y011586D01*
X019434Y011815D01*
X019819Y011815D01*
X019819Y011829D02*
X018913Y011829D01*
X018913Y011815D02*
X018913Y011905D01*
X019298Y011905D01*
X019298Y012134D01*
X019285Y012179D01*
X019262Y012220D01*
X019228Y012254D01*
X019187Y012278D01*
X019141Y012290D01*
X018913Y012290D01*
X018913Y011905D01*
X018823Y011905D01*
X018823Y012290D01*
X018594Y012290D01*
X018548Y012278D01*
X018507Y012254D01*
X018474Y012220D01*
X018450Y012179D01*
X018438Y012134D01*
X018438Y011905D01*
X018823Y011905D01*
X018823Y011815D01*
X018913Y011815D01*
X019298Y011815D01*
X019298Y011586D01*
X019285Y011540D01*
X019262Y011499D01*
X019228Y011466D01*
X019187Y011442D01*
X019141Y011430D01*
X018913Y011430D01*
X018913Y011815D01*
X018823Y011815D02*
X018823Y011430D01*
X018594Y011430D01*
X018548Y011442D01*
X018507Y011466D01*
X018474Y011499D01*
X018450Y011540D01*
X018438Y011586D01*
X018438Y011815D01*
X018823Y011815D01*
X018823Y011829D02*
X017897Y011829D01*
X017897Y011815D02*
X017897Y011905D01*
X017807Y011905D01*
X017807Y012290D01*
X017578Y012290D01*
X017532Y012278D01*
X017491Y012254D01*
X017458Y012220D01*
X017434Y012179D01*
X017422Y012134D01*
X017422Y011905D01*
X017807Y011905D01*
X017807Y011815D01*
X017422Y011815D01*
X017422Y011586D01*
X017434Y011540D01*
X017458Y011499D01*
X017491Y011466D01*
X017532Y011442D01*
X017578Y011430D01*
X017807Y011430D01*
X017807Y011815D01*
X017897Y011815D01*
X018282Y011815D01*
X018282Y011586D01*
X018270Y011540D01*
X018246Y011499D01*
X018212Y011466D01*
X018171Y011442D01*
X018126Y011430D01*
X017897Y011430D01*
X017897Y011815D01*
X017852Y011860D02*
X017092Y011100D01*
X016198Y011100D01*
X016615Y011105D02*
X016615Y011281D01*
X016605Y011317D01*
X016605Y014383D01*
X016615Y014419D01*
X016615Y014600D01*
X016615Y014781D01*
X016605Y014817D01*
X016605Y017095D01*
X022095Y017095D01*
X022095Y013340D01*
X022052Y013340D01*
X021964Y013303D01*
X021464Y012803D01*
X021397Y012736D01*
X021360Y012648D01*
X021360Y011199D01*
X021266Y011105D01*
X016615Y011105D01*
X016615Y011195D02*
X021356Y011195D01*
X021360Y011354D02*
X016605Y011354D01*
X016605Y011512D02*
X017451Y011512D01*
X017422Y011671D02*
X016605Y011671D01*
X016605Y011829D02*
X017807Y011829D01*
X017897Y011905D02*
X017897Y012290D01*
X018126Y012290D01*
X018171Y012278D01*
X018212Y012254D01*
X018246Y012220D01*
X018270Y012179D01*
X018282Y012134D01*
X018282Y011905D01*
X017897Y011905D01*
X017897Y011988D02*
X017807Y011988D01*
X017807Y012146D02*
X017897Y012146D01*
X018279Y012146D02*
X018441Y012146D01*
X018438Y011988D02*
X018282Y011988D01*
X018282Y011671D02*
X018438Y011671D01*
X018466Y011512D02*
X018253Y011512D01*
X017897Y011512D02*
X017807Y011512D01*
X017807Y011671D02*
X017897Y011671D01*
X017422Y011988D02*
X016605Y011988D01*
X016605Y012146D02*
X017425Y012146D01*
X016605Y012305D02*
X021360Y012305D01*
X021242Y012220D02*
X021209Y012254D01*
X021168Y012278D01*
X021122Y012290D01*
X020893Y012290D01*
X020893Y011905D01*
X020803Y011905D01*
X020803Y012290D01*
X020574Y012290D01*
X020529Y012278D01*
X020488Y012254D01*
X020454Y012220D01*
X020430Y012179D01*
X020418Y012134D01*
X020418Y011905D01*
X020803Y011905D01*
X020803Y011815D01*
X020418Y011815D01*
X020418Y011586D01*
X020430Y011540D01*
X020454Y011499D01*
X020488Y011466D01*
X020529Y011442D01*
X020574Y011430D01*
X020803Y011430D01*
X020803Y011815D01*
X020893Y011815D01*
X020893Y011905D01*
X021278Y011905D01*
X021278Y012134D01*
X021266Y012179D01*
X021242Y012220D01*
X021275Y012146D02*
X021360Y012146D01*
X021360Y011988D02*
X021278Y011988D01*
X021278Y011815D02*
X020893Y011815D01*
X020893Y011430D01*
X021122Y011430D01*
X021168Y011442D01*
X021209Y011466D01*
X021242Y011499D01*
X021266Y011540D01*
X021278Y011586D01*
X021278Y011815D01*
X021360Y011829D02*
X020893Y011829D01*
X020893Y011671D02*
X020803Y011671D01*
X020803Y011512D02*
X020893Y011512D01*
X021249Y011512D02*
X021360Y011512D01*
X021360Y011671D02*
X021278Y011671D01*
X020893Y011988D02*
X020803Y011988D01*
X020803Y012146D02*
X020893Y012146D01*
X020421Y012146D02*
X020290Y012146D01*
X020294Y011988D02*
X020418Y011988D01*
X020418Y011671D02*
X020294Y011671D01*
X020265Y011512D02*
X020447Y011512D01*
X019909Y011512D02*
X019819Y011512D01*
X019819Y011671D02*
X019909Y011671D01*
X019909Y011988D02*
X019819Y011988D01*
X019819Y012146D02*
X019909Y012146D01*
X019437Y012146D02*
X019294Y012146D01*
X019298Y011988D02*
X019434Y011988D01*
X019434Y011671D02*
X019298Y011671D01*
X019269Y011512D02*
X019462Y011512D01*
X018913Y011512D02*
X018823Y011512D01*
X018823Y011671D02*
X018913Y011671D01*
X018913Y011988D02*
X018823Y011988D01*
X018823Y012146D02*
X018913Y012146D01*
X019191Y013303D02*
X019463Y013230D01*
X019745Y013230D01*
X020017Y013303D01*
X020261Y013444D01*
X020461Y013643D01*
X020602Y013888D01*
X020674Y014160D01*
X020674Y014442D01*
X020602Y014714D01*
X020461Y014958D01*
X020261Y015157D01*
X020017Y015298D01*
X019745Y015371D01*
X019463Y015371D01*
X019191Y015298D01*
X018947Y015157D01*
X018947Y015158D02*
X016605Y015158D01*
X016605Y015316D02*
X019257Y015316D01*
X018947Y015157D02*
X018747Y014958D01*
X018606Y014714D01*
X018533Y014442D01*
X018533Y014160D01*
X018606Y013888D01*
X018747Y013643D01*
X018947Y013444D01*
X019191Y013303D01*
X019369Y013256D02*
X016605Y013256D01*
X016605Y013414D02*
X018999Y013414D01*
X018818Y013573D02*
X016605Y013573D01*
X016605Y013731D02*
X018697Y013731D01*
X018606Y013890D02*
X016605Y013890D01*
X016605Y014048D02*
X018563Y014048D01*
X018533Y014207D02*
X016605Y014207D01*
X016605Y014365D02*
X018533Y014365D01*
X018555Y014524D02*
X016615Y014524D01*
X016615Y014600D02*
X016605Y014600D01*
X016615Y014600D01*
X016605Y014600D02*
X016605Y014600D01*
X016615Y014682D02*
X018598Y014682D01*
X018679Y014841D02*
X016605Y014841D01*
X016605Y014999D02*
X018788Y014999D01*
X018815Y015918D02*
X018586Y015918D01*
X018540Y015930D01*
X018499Y015954D01*
X018466Y015988D01*
X018442Y016029D01*
X018430Y016074D01*
X018430Y016303D01*
X018815Y016303D01*
X018905Y016303D01*
X018905Y016393D01*
X019290Y016393D01*
X019290Y016622D01*
X019278Y016668D01*
X019254Y016709D01*
X019220Y016742D01*
X019179Y016766D01*
X019134Y016778D01*
X018905Y016778D01*
X018905Y016393D01*
X018815Y016393D01*
X018815Y016778D01*
X018586Y016778D01*
X018540Y016766D01*
X018499Y016742D01*
X018466Y016709D01*
X018442Y016668D01*
X018430Y016622D01*
X018430Y016393D01*
X018815Y016393D01*
X018815Y016303D01*
X018815Y015918D01*
X018815Y015950D02*
X018905Y015950D01*
X018905Y015918D02*
X019134Y015918D01*
X019179Y015930D01*
X019220Y015954D01*
X019254Y015988D01*
X019278Y016029D01*
X019290Y016074D01*
X019290Y016303D01*
X018905Y016303D01*
X018905Y015918D01*
X018905Y016109D02*
X018815Y016109D01*
X018815Y016267D02*
X018905Y016267D01*
X018860Y016348D02*
X019860Y016348D01*
X020856Y016348D01*
X020901Y016303D02*
X020901Y015918D01*
X021130Y015918D01*
X021175Y015930D01*
X021216Y015954D01*
X021250Y015988D01*
X021274Y016029D01*
X021286Y016074D01*
X021286Y016303D01*
X020901Y016303D01*
X020901Y016393D01*
X021286Y016393D01*
X021286Y016622D01*
X021274Y016668D01*
X021250Y016709D01*
X021216Y016742D01*
X021175Y016766D01*
X021130Y016778D01*
X020901Y016778D01*
X020901Y016393D01*
X020811Y016393D01*
X020811Y016778D01*
X020582Y016778D01*
X020536Y016766D01*
X020495Y016742D01*
X020462Y016709D01*
X020438Y016668D01*
X020426Y016622D01*
X020426Y016393D01*
X020811Y016393D01*
X020811Y016303D01*
X020901Y016303D01*
X020901Y016267D02*
X020811Y016267D01*
X020811Y016303D02*
X020811Y015918D01*
X020582Y015918D01*
X020536Y015930D01*
X020495Y015954D01*
X020462Y015988D01*
X020438Y016029D01*
X020426Y016074D01*
X020426Y016303D01*
X020811Y016303D01*
X020811Y016426D02*
X020901Y016426D01*
X020901Y016584D02*
X020811Y016584D01*
X020811Y016743D02*
X020901Y016743D01*
X021216Y016743D02*
X022095Y016743D01*
X022095Y016901D02*
X016605Y016901D01*
X016605Y016743D02*
X017492Y016743D01*
X017491Y016742D02*
X017458Y016709D01*
X017434Y016668D01*
X017422Y016622D01*
X017422Y016393D01*
X017807Y016393D01*
X017807Y016303D01*
X017897Y016303D01*
X017897Y016393D01*
X018282Y016393D01*
X018282Y016622D01*
X018270Y016668D01*
X018246Y016709D01*
X018212Y016742D01*
X018171Y016766D01*
X018126Y016778D01*
X017897Y016778D01*
X017897Y016393D01*
X017807Y016393D01*
X017807Y016778D01*
X017578Y016778D01*
X017532Y016766D01*
X017491Y016742D01*
X017422Y016584D02*
X016605Y016584D01*
X016605Y016426D02*
X017422Y016426D01*
X017422Y016303D02*
X017422Y016074D01*
X017434Y016029D01*
X017458Y015988D01*
X017491Y015954D01*
X017532Y015930D01*
X017578Y015918D01*
X017807Y015918D01*
X017807Y016303D01*
X017422Y016303D01*
X017422Y016267D02*
X016605Y016267D01*
X016605Y016109D02*
X017422Y016109D01*
X017498Y015950D02*
X016605Y015950D01*
X016605Y015792D02*
X022095Y015792D01*
X022095Y015950D02*
X021210Y015950D01*
X021286Y016109D02*
X022095Y016109D01*
X022095Y016267D02*
X021286Y016267D01*
X021286Y016426D02*
X022095Y016426D01*
X022095Y016584D02*
X021286Y016584D01*
X020901Y016109D02*
X020811Y016109D01*
X020811Y015950D02*
X020901Y015950D01*
X020502Y015950D02*
X020213Y015950D01*
X020220Y015954D02*
X020254Y015988D01*
X020278Y016029D01*
X020290Y016074D01*
X020290Y016303D01*
X019905Y016303D01*
X019905Y016393D01*
X020290Y016393D01*
X020290Y016622D01*
X020278Y016668D01*
X020254Y016709D01*
X020220Y016742D01*
X020179Y016766D01*
X020134Y016778D01*
X019905Y016778D01*
X019905Y016393D01*
X019815Y016393D01*
X019815Y016778D01*
X019586Y016778D01*
X019540Y016766D01*
X019499Y016742D01*
X019466Y016709D01*
X019442Y016668D01*
X019430Y016622D01*
X019430Y016393D01*
X019815Y016393D01*
X019815Y016303D01*
X019905Y016303D01*
X019905Y015918D01*
X020134Y015918D01*
X020179Y015930D01*
X020220Y015954D01*
X020290Y016109D02*
X020426Y016109D01*
X020426Y016267D02*
X020290Y016267D01*
X020290Y016426D02*
X020426Y016426D01*
X020426Y016584D02*
X020290Y016584D01*
X020220Y016743D02*
X020496Y016743D01*
X019905Y016743D02*
X019815Y016743D01*
X019815Y016584D02*
X019905Y016584D01*
X019905Y016426D02*
X019815Y016426D01*
X019815Y016303D02*
X019430Y016303D01*
X019430Y016074D01*
X019442Y016029D01*
X019466Y015988D01*
X019499Y015954D01*
X019540Y015930D01*
X019586Y015918D01*
X019815Y015918D01*
X019815Y016303D01*
X019815Y016267D02*
X019905Y016267D01*
X019905Y016109D02*
X019815Y016109D01*
X019815Y015950D02*
X019905Y015950D01*
X019506Y015950D02*
X019213Y015950D01*
X019290Y016109D02*
X019430Y016109D01*
X019430Y016267D02*
X019290Y016267D01*
X019290Y016426D02*
X019430Y016426D01*
X019430Y016584D02*
X019290Y016584D01*
X019220Y016743D02*
X019500Y016743D01*
X018905Y016743D02*
X018815Y016743D01*
X018815Y016584D02*
X018905Y016584D01*
X018905Y016426D02*
X018815Y016426D01*
X018860Y016348D02*
X017852Y016348D01*
X017600Y016096D01*
X017600Y015100D01*
X017100Y014600D01*
X016198Y014600D01*
X016100Y014600D01*
X016100Y013600D01*
X015600Y013600D02*
X015600Y014600D01*
X016100Y015100D01*
X016198Y015100D01*
X016605Y015475D02*
X022095Y015475D01*
X022095Y015633D02*
X016605Y015633D01*
X016198Y015600D02*
X016100Y015600D01*
X014600Y014100D01*
X014120Y014524D02*
X013660Y014524D01*
X013660Y014682D02*
X014063Y014682D01*
X014048Y014689D02*
X014116Y014655D01*
X014188Y014632D01*
X014262Y014620D01*
X014580Y014620D01*
X014580Y015080D01*
X013820Y015080D01*
X013820Y015062D01*
X013832Y014988D01*
X013855Y014916D01*
X013889Y014848D01*
X013934Y014787D01*
X013987Y014734D01*
X014048Y014689D01*
X013895Y014841D02*
X013660Y014841D01*
X013660Y014999D02*
X013830Y014999D01*
X013823Y015158D02*
X013660Y015158D01*
X013600Y015100D02*
X013600Y013100D01*
X014100Y012600D01*
X013969Y012780D02*
X013660Y012780D01*
X013660Y012622D02*
X015595Y012622D01*
X015595Y012780D02*
X015231Y012780D01*
X015331Y012939D02*
X015595Y012939D01*
X015595Y013097D02*
X015436Y013097D01*
X015595Y013256D02*
X015595Y013256D01*
X015600Y013600D02*
X015100Y013100D01*
X014600Y013100D01*
X013963Y013414D02*
X013660Y013414D01*
X013660Y013256D02*
X013867Y013256D01*
X013840Y013097D02*
X013660Y013097D01*
X013660Y012939D02*
X013869Y012939D01*
X013660Y013573D02*
X015233Y013573D01*
X015182Y013731D02*
X015360Y013731D01*
X015360Y013890D02*
X015311Y013890D01*
X015360Y014048D02*
X015360Y014048D01*
X015354Y014207D02*
X015360Y014207D01*
X015360Y014365D02*
X015286Y014365D01*
X014620Y014682D02*
X014580Y014682D01*
X014580Y014841D02*
X014620Y014841D01*
X014620Y014999D02*
X014580Y014999D01*
X014600Y015100D02*
X013600Y015100D01*
X013660Y015316D02*
X013871Y015316D01*
X013999Y015475D02*
X013660Y015475D01*
X013660Y015633D02*
X015595Y015633D01*
X015595Y015475D02*
X015201Y015475D01*
X015329Y015316D02*
X015477Y015316D01*
X015595Y015792D02*
X015242Y015792D01*
X015600Y016100D02*
X014600Y016100D01*
X013975Y016426D02*
X013660Y016426D01*
X013660Y016584D02*
X015595Y016584D01*
X015595Y016426D02*
X015225Y016426D01*
X015193Y016743D02*
X015595Y016743D01*
X015600Y017100D02*
X014600Y017100D01*
X014007Y016743D02*
X013660Y016743D01*
X013660Y016901D02*
X013885Y016901D01*
X013840Y017060D02*
X013660Y017060D01*
X013660Y017218D02*
X013851Y017218D01*
X013926Y017377D02*
X013660Y017377D01*
X013660Y017535D02*
X014148Y017535D01*
X014079Y017694D02*
X013660Y017694D01*
X014600Y018100D02*
X015100Y018100D01*
X016600Y019600D01*
X024600Y019600D01*
X025100Y019100D01*
X025100Y010100D01*
X024600Y009600D01*
X022600Y009600D01*
X022506Y009694D01*
X022506Y011100D01*
X022506Y011600D02*
X022600Y011600D01*
X023100Y011100D01*
X023100Y010600D01*
X023600Y010100D01*
X024100Y010100D01*
X024100Y011100D02*
X023100Y012100D01*
X022506Y012100D01*
X021600Y012600D02*
X021600Y011100D01*
X020600Y010100D01*
X014600Y010100D01*
X015248Y010403D02*
X015635Y010403D01*
X015595Y010561D02*
X013660Y010561D01*
X014600Y011100D02*
X015100Y011600D01*
X016198Y011600D01*
X015595Y011354D02*
X015293Y011354D01*
X015359Y011195D02*
X015595Y011195D01*
X015595Y011037D02*
X015360Y011037D01*
X015306Y010878D02*
X015595Y010878D01*
X015595Y010720D02*
X015170Y010720D01*
X014600Y012100D02*
X016198Y012100D01*
X016605Y012463D02*
X021360Y012463D01*
X021360Y012622D02*
X016605Y012622D01*
X016605Y012780D02*
X021441Y012780D01*
X021599Y012939D02*
X016605Y012939D01*
X016605Y013097D02*
X021758Y013097D01*
X021916Y013256D02*
X019839Y013256D01*
X020209Y013414D02*
X022095Y013414D01*
X022095Y013573D02*
X020390Y013573D01*
X020511Y013731D02*
X022095Y013731D01*
X022095Y013890D02*
X020602Y013890D01*
X020645Y014048D02*
X022095Y014048D01*
X022095Y014207D02*
X020674Y014207D01*
X020674Y014365D02*
X022095Y014365D01*
X022095Y014524D02*
X020653Y014524D01*
X020610Y014682D02*
X022095Y014682D01*
X022095Y014841D02*
X020528Y014841D01*
X020420Y014999D02*
X022095Y014999D01*
X022095Y015158D02*
X020261Y015158D01*
X019951Y015316D02*
X022095Y015316D01*
X022506Y015100D02*
X023100Y015100D01*
X024100Y015100D01*
X023600Y015600D02*
X024100Y016100D01*
X023600Y015600D02*
X022506Y015600D01*
X022506Y016100D02*
X023100Y016100D01*
X024100Y017100D01*
X023100Y017100D02*
X023100Y017600D01*
X023600Y018100D01*
X024100Y018100D01*
X024100Y019100D02*
X023100Y019100D01*
X022600Y018600D01*
X022600Y017100D01*
X022506Y017100D01*
X022095Y017060D02*
X016605Y017060D01*
X016198Y017100D02*
X015600Y017100D01*
X015595Y017377D02*
X015274Y017377D01*
X015052Y017535D02*
X015595Y017535D01*
X015595Y017694D02*
X015121Y017694D01*
X015295Y017852D02*
X015658Y017852D01*
X015796Y018011D02*
X015360Y018011D01*
X015508Y018169D02*
X017207Y018169D01*
X017207Y018328D02*
X015667Y018328D01*
X015825Y018486D02*
X017207Y018486D01*
X017207Y018645D02*
X015984Y018645D01*
X016142Y018803D02*
X017207Y018803D01*
X017207Y018962D02*
X016301Y018962D01*
X016459Y019120D02*
X017232Y019120D01*
X016618Y019279D02*
X022939Y019279D01*
X022781Y019120D02*
X021999Y019120D01*
X022024Y018962D02*
X022622Y018962D01*
X022464Y018803D02*
X022024Y018803D01*
X022024Y018645D02*
X022360Y018645D01*
X022360Y018486D02*
X022024Y018486D01*
X022024Y018328D02*
X022360Y018328D01*
X022360Y018169D02*
X022024Y018169D01*
X023100Y017100D02*
X022600Y016600D01*
X022506Y016600D01*
X022506Y014600D02*
X022600Y014600D01*
X024100Y014100D01*
X023100Y014100D02*
X024100Y013100D01*
X023100Y013100D02*
X024100Y012100D01*
X023100Y013100D02*
X023100Y013600D01*
X022506Y013600D01*
X022600Y013600D01*
X022506Y013100D02*
X022100Y013100D01*
X021600Y012600D01*
X022506Y014100D02*
X023100Y014100D01*
X018506Y015950D02*
X018206Y015950D01*
X018212Y015954D02*
X018246Y015988D01*
X018270Y016029D01*
X018282Y016074D01*
X018282Y016303D01*
X017897Y016303D01*
X017897Y015918D01*
X018126Y015918D01*
X018171Y015930D01*
X018212Y015954D01*
X018282Y016109D02*
X018430Y016109D01*
X018430Y016267D02*
X018282Y016267D01*
X018282Y016426D02*
X018430Y016426D01*
X018430Y016584D02*
X018282Y016584D01*
X018212Y016743D02*
X018500Y016743D01*
X017897Y016743D02*
X017807Y016743D01*
X017807Y016584D02*
X017897Y016584D01*
X017897Y016426D02*
X017807Y016426D01*
X017807Y016267D02*
X017897Y016267D01*
X017897Y016109D02*
X017807Y016109D01*
X017807Y015950D02*
X017897Y015950D01*
X016198Y016100D02*
X015600Y016100D01*
X014620Y015475D02*
X014580Y015475D01*
X014580Y015316D02*
X014620Y015316D01*
X014620Y015158D02*
X014580Y015158D01*
X013958Y015792D02*
X013660Y015792D01*
X013660Y015950D02*
X013864Y015950D01*
X013840Y016109D02*
X013660Y016109D01*
X013660Y016267D02*
X013871Y016267D01*
X013914Y014365D02*
X013660Y014365D01*
X013660Y014207D02*
X013846Y014207D01*
X013840Y014048D02*
X013660Y014048D01*
X013660Y013890D02*
X013889Y013890D01*
X014018Y013731D02*
X013660Y013731D01*
X015188Y012463D02*
X015595Y012463D01*
M02*
