%
M48
M72
T01C0.0400
T02C0.1181
%
T01
X14600Y10100
X14600Y11100
X14600Y12100
X14600Y13100
X14600Y14100
X14600Y15100
X14600Y16100
X14600Y17100
X14600Y18100
X14600Y19100
X24100Y19100
X24100Y18100
X24100Y17100
X24100Y16100
X24100Y15100
X24100Y14100
X24100Y13100
X24100Y12100
X24100Y11100
X24100Y10100
T02
X19604Y14301
M30
